<?xml version="1.0" standalone="no"?>
<!DOCTYPE svg PUBLIC "-//W3C//DTD SVG 1.1//EN" "http://www.w3.org/Graphics/SVG/1.1/DTD/svg11.dtd" >
<svg xmlns="http://www.w3.org/2000/svg" xmlns:xlink="http://www.w3.org/1999/xlink" version="1.1">
<metadata></metadata>
<defs>
<font id="samsungone600" horiz-adv-x="1336" >
<font-face units-per-em="2048" ascent="1588" descent="-460" />
<missing-glyph horiz-adv-x="440" />
<glyph unicode="&#xfb01;" horiz-adv-x="1274" d="M30 912v166h178v114q0 174 103 271t289 97q66 0 110 -10v-170q-72 8 -110 8q-98 0 -148 -50t-50 -146v-114h270v-166h-270v-912h-194v912h-178zM876 1374q0 60 33 93t93 33t93 -33t33 -91q0 -60 -33 -93t-93 -33t-93 33t-33 91zM904 0v1078h194v-1078h-194z" />
<glyph unicode="&#xfb02;" horiz-adv-x="1356" d="M30 912v166h178v114q0 174 103 271t289 97q66 0 110 -10v-170q-72 8 -110 8q-98 0 -148 -50t-50 -146v-114h270v-166h-270v-912h-194v912h-178zM896 242v1298h194v-1272q0 -56 25 -82t81 -26q34 0 76 8l16 -164q-70 -16 -140 -16q-252 0 -252 254z" />
<glyph horiz-adv-x="0" />
<glyph horiz-adv-x="0" />
<glyph unicode="&#xd;" horiz-adv-x="0" />
<glyph horiz-adv-x="0" />
<glyph horiz-adv-x="520" />
<glyph unicode="&#x9;" horiz-adv-x="1024" />
<glyph horiz-adv-x="440" />
<glyph unicode=" "  horiz-adv-x="440" />
<glyph unicode="&#x09;" horiz-adv-x="440" />
<glyph unicode="&#xa0;" horiz-adv-x="440" />
<glyph unicode="!" horiz-adv-x="706" d="M220 104q0 64 35 98t99 34q62 0 97 -35t35 -95q0 -62 -35 -97t-97 -35q-64 0 -99 35t-35 95zM240 1448h222l-32 -1040h-156z" />
<glyph unicode="&#x22;" horiz-adv-x="762" d="M126 1448h196l-36 -494h-122zM438 1448h196l-36 -494h-122z" />
<glyph unicode="#" horiz-adv-x="1344" d="M66 396v142h284l60 372h-260v142h282l64 396h162l-64 -396h266l64 396h160l-64 -396h258v-142h-280l-60 -372h252v-142h-276l-64 -396h-160l64 396h-266l-64 -396h-160l62 396h-260zM510 538h266l62 372h-268z" />
<glyph unicode="$" horiz-adv-x="1098" d="M88 126l64 154q164 -90 324 -98v468l-38 12q-172 46 -253 137t-81 239q0 170 97 273t273 121v186h146v-184q168 -16 334 -82l-62 -156q-156 56 -274 68v-452l42 -10q172 -48 252 -139t80 -239q0 -172 -97 -278t-275 -128v-188h-146v184q-104 6 -205 35t-181 77zM292 1068 q0 -86 43 -136t141 -80v412q-94 -12 -139 -60t-45 -136zM618 186q96 16 141 67t45 143q0 86 -43 136t-143 80v-426z" />
<glyph unicode="%" horiz-adv-x="1866" d="M112 1032q0 220 78 331t232 111t232 -112t78 -330t-78 -330t-232 -112t-232 111t-78 331zM282 1032q0 -156 34 -228t106 -72q70 0 104 72t34 228t-34 228t-104 72q-72 0 -106 -72t-34 -228zM478 0l736 1448h174l-734 -1448h-176zM1136 416q0 220 78 331t232 111t232 -112 t78 -330t-78 -330t-232 -112t-232 111t-78 331zM1306 416q0 -156 34 -228t106 -72t106 72t34 228t-34 228t-106 72t-106 -72t-34 -228z" />
<glyph unicode="&#x26;" horiz-adv-x="1304" d="M116 330q0 102 42 180t138 152l124 96l-60 70q-80 92 -112 163t-32 153q0 158 100 244t284 86q180 0 280 -83t100 -231q0 -98 -53 -179t-185 -187l-64 -50l240 -276l126 274h192l-170 -366l-26 -50l204 -234l-138 -120l-170 194q-80 -98 -183 -145t-233 -47 q-192 0 -298 93t-106 263zM320 346q0 -196 216 -196q174 0 286 148l-290 332l-86 -68q-70 -56 -98 -104t-28 -112zM410 1146q0 -54 26 -102t98 -132l34 -40l74 58q88 70 119 113t31 99q0 162 -192 162q-190 0 -190 -158z" />
<glyph unicode="'" horiz-adv-x="448" d="M126 1448h196l-36 -494h-122z" />
<glyph unicode="(" horiz-adv-x="662" d="M112 682q0 246 80 482t232 432l140 -104q-258 -346 -258 -808t258 -808l-140 -104q-152 196 -232 431t-80 479z" />
<glyph unicode=")" horiz-adv-x="662" d="M100 -124q256 348 256 808t-256 808l140 104q150 -196 230 -432t80 -482q0 -244 -80 -479t-230 -431z" />
<glyph unicode="*" horiz-adv-x="1076" d="M120 1076l56 164l296 -116l-20 324h170l-18 -324l296 116l54 -164l-310 -84l202 -252l-132 -106l-176 272l-176 -272l-134 106l202 252z" />
<glyph unicode="+" horiz-adv-x="1148" d="M102 648v178h380v416h184v-416h380v-178h-380v-416h-184v416h-380z" />
<glyph unicode="," horiz-adv-x="480" d="M14 -270q78 84 111 165t33 187q0 68 -10 134h200q10 -66 10 -130q0 -134 -62 -242t-196 -208z" />
<glyph unicode="-" horiz-adv-x="816" d="M100 516v160h616v-160h-616z" />
<glyph unicode="." horiz-adv-x="508" d="M122 104q0 64 35 98t97 34t97 -35t35 -95q0 -62 -35 -97t-97 -35t-97 35t-35 95z" />
<glyph unicode="/" horiz-adv-x="890" d="M44 -172l642 1656h166l-644 -1656h-164z" />
<glyph unicode="0" horiz-adv-x="1246" d="M132 724q0 386 121 568t369 182t371 -183t123 -567t-122 -567t-370 -183t-370 182t-122 568zM334 724q0 -298 69 -436t221 -138q150 0 220 139t70 435q0 298 -70 436t-222 138q-150 0 -219 -138t-69 -436z" />
<glyph unicode="1" horiz-adv-x="898" d="M64 1290l412 158h168v-1448h-196v1240l-328 -114z" />
<glyph unicode="2" horiz-adv-x="1064" d="M68 1334q80 64 202 102t238 38q194 0 311 -104t117 -274q0 -100 -49 -201t-167 -239l-414 -486h642v-170h-872v172l496 592q92 110 129 180t37 136q0 100 -65 156t-181 56q-84 0 -171 -29t-161 -81z" />
<glyph unicode="3" horiz-adv-x="1124" d="M68 94l76 166q86 -50 177 -77t173 -27q136 0 213 77t77 213q0 130 -74 203t-204 73q-72 0 -132 -18l-76 96l428 478h-630v170h846v-170l-356 -394q184 -14 292 -132t108 -306q0 -140 -61 -247t-173 -166t-258 -59q-112 0 -228 33t-198 87z" />
<glyph unicode="4" horiz-adv-x="1160" d="M56 302v172l550 974h276v-974h182v-172h-182v-302h-190v302h-636zM262 474h430v796z" />
<glyph unicode="5" horiz-adv-x="1106" d="M84 86l76 164q78 -44 162 -69t160 -25q140 0 218 80t78 222q0 134 -73 210t-203 76q-64 0 -126 -18t-112 -50l-118 66l40 706h730v-170h-558l-30 -396q98 38 210 38q132 0 232 -57t155 -161t55 -242q0 -144 -62 -254t-175 -171t-261 -61q-106 0 -215 31t-183 81z" />
<glyph unicode="6" horiz-adv-x="1132" d="M100 468q0 154 60 297t206 325l304 384l156 -118l-308 -370l-84 -108q84 32 184 32q128 0 226 -57t152 -160t54 -241q0 -142 -59 -250t-166 -168t-247 -60q-144 0 -252 62t-167 174t-59 258zM298 472q0 -152 75 -239t207 -87q126 0 197 80t71 220q0 144 -75 226t-209 82 q-114 0 -216 -56q-50 -94 -50 -226z" />
<glyph unicode="7" horiz-adv-x="988" d="M34 1278v170h888v-170l-568 -1298l-182 76l548 1222h-686z" />
<glyph unicode="8" horiz-adv-x="1172" d="M100 368q0 124 83 229t219 157q-110 40 -177 137t-67 215q0 110 53 193t150 129t225 46t225 -46t150 -129t53 -193q0 -118 -68 -213t-178 -133q138 -40 222 -145t84 -237q0 -120 -61 -212t-171 -142t-256 -50t-256 49t-170 138t-60 207zM298 386q0 -114 76 -178t212 -64 q134 0 211 64t77 176q0 92 -79 172t-217 130q-132 -44 -206 -124t-74 -176zM354 1090q0 -86 65 -156t177 -106q104 36 163 105t59 155q0 102 -62 160t-170 58t-170 -58t-62 -158z" />
<glyph unicode="9" horiz-adv-x="1132" d="M84 996q0 142 58 250t165 168t247 60q144 0 252 -62t168 -174t60 -258q0 -152 -61 -296t-207 -326l-304 -384l-156 118l308 370l86 110q-84 -34 -186 -34q-128 0 -226 56t-151 160t-53 242zM284 1002q0 -144 75 -226t209 -82q108 0 216 54q50 96 50 228q0 152 -75 239 t-205 87q-128 0 -199 -80t-71 -220z" />
<glyph unicode=":" horiz-adv-x="588" d="M162 104q0 64 35 98t97 34t97 -35t35 -95q0 -62 -35 -97t-97 -35t-97 35t-35 95zM162 786q0 64 35 98t97 34t97 -35t35 -95q0 -62 -35 -97t-97 -35t-97 35t-35 95z" />
<glyph unicode=";" horiz-adv-x="588" d="M64 -270q78 84 111 165t33 187q0 68 -10 134h200q10 -66 10 -130q0 -134 -62 -242t-196 -208zM162 786q0 64 35 98t97 34t97 -35t35 -95q0 -62 -35 -97t-97 -35t-97 35t-35 95z" />
<glyph unicode="&#x3c;" horiz-adv-x="860" d="M94 730l532 598l142 -132l-424 -466l424 -466l-142 -132z" />
<glyph unicode="=" horiz-adv-x="1148" d="M148 408v180h852v-180h-852zM148 872v180h852v-180h-852z" />
<glyph unicode="&#x3e;" horiz-adv-x="860" d="M94 264l422 466l-422 466l142 132l532 -598l-532 -598z" />
<glyph unicode="?" horiz-adv-x="1034" d="M98 1350q88 60 192 92t216 32q194 0 302 -96t108 -268q0 -100 -44 -173t-160 -161q-100 -76 -134 -129t-34 -131q0 -38 6 -108h-184q-6 76 -6 114q0 114 45 191t167 175q82 64 110 107t28 105q0 188 -214 188q-154 0 -318 -102zM326 104q0 62 35 97t99 35q62 0 97 -35 t35 -95q0 -62 -35 -97t-97 -35t-98 35t-36 95z" />
<glyph unicode="@" horiz-adv-x="1616" d="M136 724q0 226 85 398t240 266t357 94q200 0 352 -86t236 -243t84 -363q0 -192 -83 -309t-221 -117q-56 0 -100 21t-68 59q-68 -88 -200 -88q-140 0 -219 97t-79 271q0 176 86 272t240 96q130 0 228 -70v-410q0 -120 98 -120q82 0 126 78t44 220q0 256 -138 400t-386 144 t-386 -161t-138 -449q0 -290 144 -452t402 -162q170 0 302 74l58 -128q-68 -42 -163 -66t-197 -24q-212 0 -372 94t-246 266t-86 398zM668 724q0 -238 170 -238q50 0 94 26v432q-48 18 -92 18q-172 0 -172 -238z" />
<glyph unicode="A" d="M50 0l508 1448h220l506 -1448h-212l-118 364h-576l-118 -364h-210zM434 538h462l-232 710z" />
<glyph unicode="B" horiz-adv-x="1292" d="M180 0v1448h198h296q208 0 324 -106t116 -296q0 -218 -188 -282q270 -72 270 -346q0 -198 -119 -308t-333 -110h-458h-106zM378 176h376q116 0 176 61t60 179q0 240 -246 240h-366v-480zM378 828h296q116 0 176 55t60 161q0 112 -62 170t-184 58h-286v-444z" />
<glyph unicode="C" horiz-adv-x="1202" d="M96 696q0 234 79 410t223 272t338 96q102 0 202 -27t180 -75l-72 -156q-160 78 -314 78q-204 0 -317 -153t-113 -429q0 -272 115 -412t341 -140q182 0 300 70l72 -154q-64 -48 -166 -74t-218 -26q-308 0 -479 190t-171 530z" />
<glyph unicode="D" horiz-adv-x="1382" d="M180 0v1448h424q322 0 492 -183t170 -541t-172 -541t-496 -183h-418zM378 178h222q228 0 344 138t116 408q0 272 -117 409t-347 137h-218v-1092z" />
<glyph unicode="E" horiz-adv-x="1152" d="M180 0v1448h866v-178h-668v-440h498v-180h-498v-472h694v-178h-892z" />
<glyph unicode="F" horiz-adv-x="1076" d="M180 0v1448h852v-178h-654v-470h534v-180h-534v-620h-198z" />
<glyph unicode="G" d="M116 724q0 356 173 553t487 197q112 0 216 -27t178 -73l-60 -162q-180 84 -338 84q-224 0 -337 -144t-113 -428t114 -428t340 -144q120 0 222 32v424h-256v176h454v-704q-78 -50 -188 -78t-232 -28q-314 0 -487 197t-173 553z" />
<glyph unicode="H" horiz-adv-x="1404" d="M180 0v1448h198v-624h646v624h198v-1448h-198v646h-646v-646h-198z" />
<glyph unicode="I" horiz-adv-x="566" d="M184 0v1448h198v-1448h-198z" />
<glyph unicode="J" horiz-adv-x="920" d="M12 72l74 156q122 -74 248 -74q218 0 218 220v1074h198v-1082q0 -186 -108 -289t-302 -103q-98 0 -184 26t-144 72z" />
<glyph unicode="K" horiz-adv-x="1248" d="M180 0v1448h198v-764l604 764h238l-536 -650l568 -798h-238l-458 644l-178 -214v-430h-198z" />
<glyph unicode="L" horiz-adv-x="1058" d="M180 0v1448h198v-1268h624v-180h-822z" />
<glyph unicode="M" horiz-adv-x="1696" d="M180 0v1448h238l432 -968l424 968h242v-1448h-194v1136l-372 -842h-208l-372 842v-1136h-190z" />
<glyph unicode="N" horiz-adv-x="1448" d="M180 0v1448h188l704 -1110v1110h194v-1448h-188l-704 1112v-1112h-194z" />
<glyph unicode="O" horiz-adv-x="1428" d="M116 724q0 370 153 560t445 190q290 0 444 -190t154 -560t-154 -560t-444 -190q-292 0 -445 190t-153 560zM322 724q0 -284 99 -428t293 -144t293 144t99 428t-99 428t-293 144t-293 -144t-99 -428z" />
<glyph unicode="P" horiz-adv-x="1194" d="M180 0v1448h198h314q220 0 341 -125t121 -349q0 -226 -125 -352t-347 -126h-304v-496h-198zM378 674h314q126 0 191 76t65 222q0 148 -67 223t-199 75h-304v-596z" />
<glyph unicode="Q" horiz-adv-x="1428" d="M116 724q0 370 153 560t445 190q290 0 444 -190t154 -560q0 -450 -228 -634l250 -270l-132 -134l-274 320q-94 -32 -214 -32q-292 0 -445 190t-153 560zM322 724q0 -284 99 -428t293 -144t293 144t99 428t-99 428t-293 144t-293 -144t-99 -428z" />
<glyph unicode="R" horiz-adv-x="1266" d="M180 0v1448h198h296q216 0 337 -120t121 -334q0 -168 -77 -281t-221 -153l374 -560h-240l-342 538h-248v-538h-198zM378 712h296q252 0 252 280q0 138 -66 209t-194 71h-288v-560z" />
<glyph unicode="S" horiz-adv-x="1124" d="M78 98l68 162q192 -108 388 -108q144 0 221 59t77 165q0 90 -53 147t-165 87l-164 46q-186 50 -271 146t-85 254q0 194 125 305t341 111q106 0 219 -24t209 -68l-66 -164q-206 80 -366 80q-128 0 -197 -55t-69 -155q0 -90 53 -146t165 -86l164 -46q184 -52 269 -148 t85 -254q0 -200 -131 -315t-361 -115q-124 0 -244 32t-212 90z" />
<glyph unicode="T" horiz-adv-x="1056" d="M52 1268v180h574h378v-180h-378v-1268h-198v1268h-376z" />
<glyph unicode="U" horiz-adv-x="1372" d="M170 508v940h198v-932q0 -180 80 -272t236 -92q318 0 318 364v932h198v-940q0 -254 -136 -394t-380 -140t-379 140t-135 394z" />
<glyph unicode="V" horiz-adv-x="1264" d="M58 1448h212l364 -1234l360 1234h210l-462 -1448h-220z" />
<glyph unicode="W" horiz-adv-x="1792" d="M62 1448h208l264 -1216l254 1214h216l258 -1212l262 1214h204l-360 -1448h-220l-256 1164l-250 -1164h-220z" />
<glyph unicode="X" horiz-adv-x="1216" d="M52 0l444 732l-428 716h228l316 -550l322 550h224l-438 -712l442 -736h-228l-330 572l-326 -572h-226z" />
<glyph unicode="Y" horiz-adv-x="1176" d="M42 1448h216l332 -724l328 724h214l-448 -944v-504h-198v504z" />
<glyph unicode="Z" horiz-adv-x="1106" d="M82 0v176l704 1098h-678v174h902v-174l-704 -1100h714v-174h-938z" />
<glyph unicode="[" horiz-adv-x="706" d="M180 -200v1768h472v-154h-290v-1460h290v-154h-472z" />
<glyph unicode="\" horiz-adv-x="890" d="M38 1484h164l644 -1656h-164z" />
<glyph unicode="]" horiz-adv-x="706" d="M54 -46h290v1460h-290v154h472v-1768h-472v154z" />
<glyph unicode="^" horiz-adv-x="850" d="M34 1038l296 410h188l296 -410h-204l-184 278l-186 -278h-206z" />
<glyph unicode="_" horiz-adv-x="1198" d="M180 -136h836v-172h-836v172z" />
<glyph unicode="`" horiz-adv-x="1000" d="M230 1548v20h214l182 -318v-20h-148z" />
<glyph unicode="a" horiz-adv-x="1062" d="M76 300q0 192 154 283t484 93v62q0 92 -60 140t-176 48q-132 0 -252 -56l-50 156q158 78 332 78q184 0 291 -89t107 -257v-758h-176v142q-104 -164 -322 -164q-158 0 -245 84t-87 238zM264 314q0 -82 48 -124t142 -42q150 0 260 120v266q-234 -4 -342 -56t-108 -164z" />
<glyph unicode="b" horiz-adv-x="1154" d="M170 0v126v876v538h194v-582q110 146 290 146q190 0 295 -150t105 -420q0 -264 -109 -412t-305 -148q-90 0 -166 37t-126 105v-116h-178zM364 260q46 -52 110 -81t134 -29q246 0 246 380q0 390 -256 390q-128 0 -234 -114v-546z" />
<glyph unicode="c" horiz-adv-x="962" d="M92 534q0 170 60 299t170 200t254 71q82 0 165 -25t149 -67l-72 -154q-134 68 -246 68q-132 0 -206 -100t-74 -278q0 -194 77 -293t229 -99q122 0 234 64l70 -152q-60 -44 -141 -68t-175 -24q-234 0 -364 147t-130 411z" />
<glyph unicode="d" horiz-adv-x="1154" d="M100 542q0 266 109 414t305 148q84 0 155 -32t119 -90v558h194v-1540h-178v76v68q-106 -170 -306 -170q-188 0 -293 150t-105 418zM300 546q0 -388 256 -388q66 0 123 27t109 87v544q-46 54 -110 83t-134 29q-122 0 -183 -96t-61 -286z" />
<glyph unicode="e" horiz-adv-x="1082" d="M96 538q0 268 120 417t336 149q210 0 326 -137t116 -383q0 -62 -8 -102h-694q24 -328 312 -328q144 0 272 76l70 -150q-68 -50 -162 -77t-196 -27q-234 0 -363 148t-129 414zM294 628h506q-2 144 -68 224t-184 80q-112 0 -176 -77t-78 -227z" />
<glyph unicode="f" horiz-adv-x="730" d="M30 912v166h178v114q0 174 103 271t289 97q66 0 110 -10v-170q-72 8 -110 8q-98 0 -148 -50t-50 -146v-114h270v-166h-270v-912h-194v912h-178z" />
<glyph unicode="g" horiz-adv-x="1158" d="M100 572q0 252 110 392t308 140q92 0 167 -37t125 -107v118h178v-1066q0 -214 -126 -333t-352 -119q-86 0 -170 18t-148 50l58 164q120 -58 248 -58q296 0 296 278v168q-106 -146 -292 -146q-190 0 -296 142t-106 396zM300 576q0 -178 66 -268t194 -90q68 0 125 27 t109 87v484q-48 54 -112 83t-134 29q-248 0 -248 -352z" />
<glyph unicode="h" horiz-adv-x="1170" d="M170 0v1540h194v-568q132 132 314 132q158 0 245 -91t87 -255v-758h-194v736q0 184 -202 184q-70 0 -131 -23t-119 -71v-826h-194z" />
<glyph unicode="i" horiz-adv-x="544" d="M146 1374q0 60 33 93t93 33t93 -33t33 -91q0 -60 -33 -93t-93 -33t-93 33t-33 91zM174 0v1078h194v-1078h-194z" />
<glyph unicode="j" horiz-adv-x="544" d="M-104 -282q112 40 171 83t83 106t24 167v1004h194v-1008q0 -148 -36 -240t-123 -155t-247 -117zM146 1374q0 60 33 93t93 33t93 -33t33 -91q0 -60 -33 -93t-93 -33t-93 33t-33 91z" />
<glyph unicode="k" horiz-adv-x="1094" d="M170 0v1540h194v-980l436 518h230l-398 -454l422 -624h-228l-322 478l-140 -160v-318h-194z" />
<glyph unicode="l" horiz-adv-x="626" d="M166 242v1298h194v-1272q0 -56 25 -82t81 -26q34 0 76 8l16 -164q-70 -16 -140 -16q-252 0 -252 254z" />
<glyph unicode="m" horiz-adv-x="1770" d="M170 0v1078h178v-124q132 150 322 150q102 0 175 -43t109 -125q144 168 338 168q150 0 233 -91t83 -255v-758h-194v736q0 184 -188 184q-66 0 -124 -23t-118 -75q4 -20 4 -64v-758h-194v736q0 184 -190 184q-64 0 -122 -23t-118 -71v-826h-194z" />
<glyph unicode="n" horiz-adv-x="1166" d="M170 0v1078h178v-124q132 150 328 150q156 0 243 -91t87 -255v-758h-194v736q0 184 -200 184q-70 0 -129 -23t-119 -71v-826h-194z" />
<glyph unicode="o" horiz-adv-x="1116" d="M100 538q0 278 119 422t341 144q220 0 338 -144t118 -422q0 -276 -119 -420t-339 -144q-222 0 -340 143t-118 421zM300 538q0 -194 65 -292t193 -98t193 98t65 292t-65 293t-191 99q-128 0 -194 -99t-66 -293z" />
<glyph unicode="p" horiz-adv-x="1154" d="M170 126v876v76h178v-144q110 170 306 170q190 0 295 -150t105 -420q0 -264 -109 -412t-305 -148q-84 0 -155 31t-121 89v-508h-194v540zM364 260q46 -52 110 -81t134 -29q246 0 246 380q0 390 -256 390q-128 0 -234 -114v-546z" />
<glyph unicode="q" horiz-adv-x="1154" d="M100 542q0 266 109 414t305 148q92 0 167 -37t123 -105v116h178v-1492h-194v534q-104 -146 -290 -146q-188 0 -293 150t-105 418zM300 546q0 -388 256 -388q66 0 123 27t109 87v544q-46 54 -110 83t-134 29q-122 0 -183 -96t-61 -286z" />
<glyph unicode="r" horiz-adv-x="802" d="M170 0v1078h178v-158q110 180 288 180q70 0 130 -26l-42 -186q-74 20 -136 20q-74 0 -128 -30t-96 -92v-786h-194z" />
<glyph unicode="s" horiz-adv-x="932" d="M66 76l70 162q146 -90 308 -90q214 0 214 146q0 58 -35 93t-113 53l-142 34q-148 34 -217 107t-69 195q0 154 102 240t286 86q92 0 183 -22t165 -62l-74 -160q-148 72 -278 72q-96 0 -145 -35t-49 -101q0 -54 36 -88t112 -52l142 -34q148 -34 217 -109t69 -199 q0 -158 -107 -247t-297 -89q-106 0 -205 26t-173 74z" />
<glyph unicode="t" horiz-adv-x="782" d="M34 912v166h180v310h192v-310h314v-166h-314v-542q0 -110 45 -161t139 -51q56 0 112 18l32 -166q-80 -24 -174 -24q-348 0 -348 352v574h-178z" />
<glyph unicode="u" horiz-adv-x="1150" d="M156 320v758h194v-736q0 -184 194 -184q72 0 130 26t112 84v810h194v-1078h-178v138q-118 -164 -322 -164q-154 0 -239 91t-85 255z" />
<glyph unicode="v" horiz-adv-x="1044" d="M50 1078h204l272 -878l268 878h200l-366 -1078h-210z" />
<glyph unicode="w" horiz-adv-x="1568" d="M54 1078h202l216 -874l212 874h200l218 -874l212 874h200l-310 -1078h-212l-210 826l-208 -826h-212z" />
<glyph unicode="x" horiz-adv-x="1018" d="M54 0l348 546l-334 532h220l224 -376l232 376h218l-346 -528l350 -550h-222l-240 396l-234 -396h-216z" />
<glyph unicode="y" horiz-adv-x="1036" d="M50 1078h204l266 -862l266 862h200l-360 -1064q-54 -162 -178 -273t-324 -179l-68 166q142 50 228 113t136 153z" />
<glyph unicode="z" horiz-adv-x="934" d="M76 0v164l550 750h-532v164h752v-164l-550 -750h558v-164h-778z" />
<glyph unicode="{" horiz-adv-x="752" d="M40 606v156q114 2 169 40t55 118v234q0 138 36 224t117 138t227 84l44 -152q-98 -24 -150 -57t-73 -88t-21 -149v-234q0 -98 -40 -155t-122 -79q82 -22 122 -81t40 -157v-232q0 -96 21 -151t73 -88t150 -57l-44 -152q-146 32 -227 84t-117 138t-36 226v232q0 80 -55 118 t-169 40z" />
<glyph unicode="|" horiz-adv-x="510" d="M180 -500v2132h148v-2132h-148z" />
<glyph unicode="}" horiz-adv-x="752" d="M64 -80q100 24 151 57t72 88t21 151v232q0 98 40 157t122 81q-82 22 -122 79t-40 155v234q0 94 -21 149t-73 88t-150 57l44 152q146 -32 227 -84t117 -138t36 -224v-234q0 -80 55 -118t169 -40v-156q-114 -2 -169 -40t-55 -118v-232q0 -140 -36 -226t-117 -138t-227 -84z " />
<glyph unicode="~" horiz-adv-x="1148" d="M102 704q142 168 300 168q54 0 96 -17t94 -49q48 -30 80 -44t72 -14q48 0 93 27t93 85l116 -120q-140 -168 -300 -168q-54 0 -96 17t-94 49q-44 30 -77 44t-73 14q-50 0 -95 -27t-93 -85z" />
<glyph unicode="&#xa1;" horiz-adv-x="706" d="M220 962q0 62 35 97t97 35q64 0 99 -35t35 -95q0 -64 -35 -98t-99 -34q-62 0 -97 35t-35 95zM244 -380l32 1040h156l34 -1040h-222z" />
<glyph unicode="&#xa2;" horiz-adv-x="958" d="M92 564q0 204 104 339t282 163v230h146v-226q142 -10 246 -78l-70 -146q-86 42 -176 54v-674q96 6 192 60l66 -144q-110 -78 -258 -88v-224h-146v230q-184 28 -285 159t-101 345zM286 572q0 -144 47 -226t145 -108v656q-192 -48 -192 -322z" />
<glyph unicode="&#xa3;" horiz-adv-x="1064" d="M108 646v166h176l-30 68q-30 70 -45 119t-15 117q0 170 105 264t295 94q112 0 204 -32t156 -94l-96 -160q-118 100 -264 100q-198 0 -198 -176q0 -46 12 -86t38 -104q34 -80 42 -110h336v-166h-310v-18q0 -262 -200 -454h636v-174h-824v174l64 72q70 76 101 162t31 194 q0 30 -2 44h-212z" />
<glyph unicode="&#xa4;" horiz-adv-x="1186" d="M100 102l138 174q-102 130 -102 350q0 222 102 348l-138 174l120 94l138 -170q96 54 236 54q138 0 236 -54l138 170l118 -94l-138 -174q104 -128 104 -348q0 -222 -104 -350l138 -174l-118 -94l-138 170q-98 -54 -236 -54q-140 0 -236 54l-138 -170zM334 626 q0 -162 66 -245t194 -83t194 83t66 245q0 326 -260 326t-260 -326z" />
<glyph unicode="&#xa5;" horiz-adv-x="1076" d="M40 1448h212l290 -752l286 752h210l-342 -776h218v-144h-280v-150h280v-144h-280v-234h-194v234h-280v144h280v150h-280v144h218z" />
<glyph unicode="&#xa6;" horiz-adv-x="510" d="M180 396h148v-896h-148v896zM180 738v894h148v-894h-148z" />
<glyph unicode="&#xa7;" horiz-adv-x="1066" d="M126 -324l70 166q194 -92 332 -92q110 0 164 47t54 145q0 80 -40 127t-136 73l-124 36q-166 46 -243 134t-77 232q0 172 106 290q-96 90 -96 252q0 182 110 284t308 102q88 0 180 -20t166 -56l-68 -164q-156 64 -282 64q-114 0 -168 -48t-54 -148q0 -82 40 -128t134 -72 l124 -34q162 -46 238 -135t76 -233q0 -168 -102 -286q100 -94 100 -258q0 -180 -108 -280t-302 -100q-98 0 -205 27t-197 75zM306 576q0 -86 46 -137t152 -83l124 -36l72 -24q60 76 60 174q0 86 -44 136t-148 80l-124 36q-28 8 -76 28q-62 -76 -62 -174z" />
<glyph unicode="&#xa8;" horiz-adv-x="1000" d="M194 1364q0 58 31 89t87 31q54 0 85 -32t31 -86q0 -58 -30 -89t-86 -31t-87 32t-31 86zM572 1364q0 58 30 89t86 31t87 -32t31 -86q0 -58 -31 -89t-87 -31q-54 0 -85 32t-31 86z" />
<glyph unicode="&#xa9;" horiz-adv-x="1666" d="M172 724q0 236 80 405t229 257t353 88t352 -88t228 -257t80 -405t-80 -405t-228 -257t-352 -88t-353 88t-229 257t-80 405zM304 724q0 -298 138 -460t392 -162q252 0 390 163t138 459t-138 459t-390 163q-254 0 -392 -162t-138 -460zM542 722q0 176 82 273t232 97 q60 0 115 -15t97 -43l-56 -118q-86 44 -158 44q-166 0 -166 -230q0 -242 182 -242q80 0 154 44l50 -116q-38 -28 -93 -44t-119 -16q-152 0 -236 96t-84 270z" />
<glyph unicode="&#xaa;" horiz-adv-x="1036" d="M136 844q0 152 124 218t406 66v44q0 132 -182 132q-112 0 -224 -48l-46 136q130 68 294 68q156 0 243 -69t87 -191v-544q-72 -38 -163 -58t-183 -20q-170 0 -263 70t-93 196zM184 236v146h646v-146h-646zM306 850q0 -60 47 -91t139 -31q108 0 174 26v248q-190 0 -275 -36 t-85 -116z" />
<glyph unicode="&#xab;" horiz-adv-x="1182" d="M66 574l442 510l122 -118l-342 -388l342 -394l-124 -118zM544 574l442 510l122 -118l-342 -388l342 -394l-124 -118z" />
<glyph unicode="&#xac;" horiz-adv-x="1148" d="M130 814v180h888v-180v-338h-182v338h-706z" />
<glyph unicode="&#xad;" horiz-adv-x="816" d="M100 516v160h616v-160h-616z" />
<glyph unicode="&#xae;" horiz-adv-x="1666" d="M172 724q0 236 80 405t229 257t353 88t352 -88t228 -257t80 -405t-80 -405t-228 -257t-352 -88t-353 88t-229 257t-80 405zM304 724q0 -298 138 -460t392 -162q252 0 390 163t138 459t-138 459t-390 163q-254 0 -392 -162t-138 -460zM604 368v712h248q110 0 171 -64 t61 -178q0 -80 -30 -136t-88 -84l148 -250h-160l-122 226h-92v-226h-136zM740 714h108q92 0 92 118q0 122 -98 122h-102v-240z" />
<glyph unicode="&#xaf;" horiz-adv-x="1000" d="M198 1278v142h604v-142h-604z" />
<glyph unicode="&#xb0;" horiz-adv-x="902" d="M98 1116q0 158 98 257t256 99q156 0 254 -99t98 -257t-98 -257t-254 -99q-158 0 -256 99t-98 257zM274 1116q0 -84 49 -136t129 -52q78 0 128 52t50 136t-50 136t-128 52q-80 0 -129 -52t-49 -136z" />
<glyph unicode="&#xb1;" horiz-adv-x="1148" d="M102 154v172h944v-172h-944zM102 814v176h380v362h184v-362h380v-176h-380v-362h-184v362h-380z" />
<glyph unicode="&#xb2;" horiz-adv-x="756" d="M52 1448q146 106 312 106q132 0 205 -66t73 -186q0 -70 -32 -130t-116 -142l-236 -236h400v-140h-598v140l322 328q54 58 73 92t19 76q0 114 -124 114q-104 0 -226 -78z" />
<glyph unicode="&#xb3;" horiz-adv-x="804" d="M52 724l60 132q108 -66 228 -66q176 0 176 142q0 134 -164 134q-52 0 -98 -12l-60 82l262 264h-380v140h570v-140l-220 -204q124 -10 192 -79t68 -187q0 -138 -91 -214t-255 -76q-174 0 -288 84z" />
<glyph unicode="&#xb4;" horiz-adv-x="1000" d="M382 1230v20l200 318h212v-20l-264 -318h-148z" />
<glyph unicode="&#xb5;" horiz-adv-x="1176" d="M170 -414v1020v472h194v-724q0 -98 52 -148t148 -50q76 0 135 27t113 85v810h194v-1078h-176v140q-112 -160 -310 -160q-98 0 -156 46v-440h-194z" />
<glyph unicode="&#xb6;" horiz-adv-x="1148" d="M56 1038q0 194 123 302t343 108h444v-1448h-154v1296h-152v-1296h-152v632q-214 2 -333 109t-119 297z" />
<glyph unicode="&#xb7;" horiz-adv-x="508" d="M122 670q0 64 35 98t97 34t97 -35t35 -95q0 -62 -34 -97t-98 -35q-62 0 -97 35t-35 95z" />
<glyph unicode="&#xb8;" horiz-adv-x="1000" d="M274 -416l36 102q102 -36 168 -36q104 0 104 72q0 70 -94 70q-42 0 -86 -16l-48 56l88 208l140 -12l-100 -144q28 4 42 4q100 0 157 -43t57 -121q0 -90 -65 -139t-183 -49q-120 0 -216 48z" />
<glyph unicode="&#xb9;" horiz-adv-x="684" d="M46 1438l268 102h134v-886h-164v720l-192 -66z" />
<glyph unicode="&#xba;" horiz-adv-x="1048" d="M140 1020q0 216 100 329t286 113q184 0 283 -113t99 -329q0 -218 -100 -331t-284 -113t-284 113t-100 331zM202 236v146h646v-146h-646zM316 1020q0 -144 52 -218t156 -74t156 74t52 218q0 290 -206 290q-104 0 -157 -73t-53 -217z" />
<glyph unicode="&#xbb;" horiz-adv-x="1182" d="M74 184l342 390l-342 392l124 118l440 -508l-442 -510zM552 184l342 390l-342 392l124 118l440 -508l-442 -510z" />
<glyph unicode="&#xbc;" horiz-adv-x="1812" d="M46 1346l268 102h134v-886h-164v720l-192 -66zM386 44l834 1436l134 -76l-834 -1436zM1072 164v136l340 586h230v-586h110v-136h-110v-164h-158v164h-412zM1238 300h246v448z" />
<glyph unicode="&#xbd;" horiz-adv-x="1888" d="M46 1346l268 102h134v-886h-164v720l-192 -66zM386 44l834 1436l134 -76l-834 -1436zM1188 794q146 106 312 106q132 0 205 -66t73 -186q0 -70 -32 -130t-116 -142l-236 -236h400v-140h-598v140l322 328q54 58 73 92t19 76q0 114 -124 114q-106 0 -226 -80z" />
<glyph unicode="&#xbe;" horiz-adv-x="1968" d="M52 632l60 132q108 -66 228 -66q176 0 176 142q0 134 -164 134q-52 0 -98 -12l-60 82l262 264h-380v140h570v-140l-218 -204q124 -10 191 -80t67 -186q0 -138 -91 -214t-255 -76q-174 0 -288 84zM542 44l834 1436l134 -76l-834 -1436zM1228 164v136l340 586h230v-586h110 v-136h-110v-164h-158v164h-412zM1394 300h246v448z" />
<glyph unicode="&#xbf;" horiz-adv-x="934" d="M118 -42q0 100 44 173t160 161q100 76 134 129t34 131q0 40 -6 108h184q6 -74 6 -114q0 -114 -45 -191t-167 -175q-82 -64 -110 -107t-28 -105q0 -188 216 -188q152 0 316 102l80 -164q-88 -60 -192 -92t-216 -32q-194 0 -302 96t-108 268zM442 962q0 62 35 97t97 35 t98 -35t36 -95q0 -62 -35 -97t-99 -35q-62 0 -97 35t-35 95z" />
<glyph unicode="&#xc0;" d="M50 0l508 1448h220l506 -1448h-212l-118 364h-576l-118 -364h-210zM294 1828v24h234l280 -266v-24h-168zM434 538h462l-232 710z" />
<glyph unicode="&#xc1;" d="M50 0l508 1448h220l506 -1448h-212l-118 364h-576l-118 -364h-210zM434 538h462l-232 710zM526 1562v24l300 266h232v-24l-364 -266h-168z" />
<glyph unicode="&#xc2;" d="M50 0l508 1448h220l506 -1448h-212l-118 364h-576l-118 -364h-210zM334 1562v24l234 266h200l234 -266v-24h-152l-186 174l-184 -174h-146zM434 538h462l-232 710z" />
<glyph unicode="&#xc3;" d="M50 0l508 1448h220l506 -1448h-212l-118 364h-576l-118 -364h-210zM324 1580q4 126 57 198t147 72q52 0 91 -20t89 -56q36 -26 58 -38t46 -12q68 0 82 122h118q-4 -126 -57 -198t-147 -72q-52 0 -91 20t-89 56q-36 26 -58 38t-46 12q-68 0 -82 -122h-118zM434 538h462 l-232 710z" />
<glyph unicode="&#xc4;" d="M50 0l508 1448h220l506 -1448h-212l-118 364h-576l-118 -364h-210zM352 1694q0 56 31 88t87 32q54 0 85 -32t31 -86q0 -58 -30 -89t-86 -31t-87 32t-31 86zM434 538h462l-232 710zM750 1694q0 56 31 88t87 32q54 0 85 -32t31 -86q0 -58 -30 -89t-86 -31t-87 32t-31 86z " />
<glyph unicode="&#xc5;" d="M50 0l508 1448h220l506 -1448h-212l-118 364h-576l-118 -364h-210zM420 1758q0 104 65 163t183 59t183 -59t65 -163q0 -106 -65 -165t-183 -59t-183 59t-65 165zM434 538h462l-232 710zM552 1758q0 -116 116 -116t116 116t-116 116t-116 -116z" />
<glyph unicode="&#xc6;" horiz-adv-x="1822" d="M-8 0l768 1448h200h758v-178h-640v-440h470v-180h-470v-472h666v-178h-858v346h-498l-182 -346h-214zM478 520h408v784z" />
<glyph unicode="&#xc7;" horiz-adv-x="1202" d="M96 696q0 234 79 410t223 272t338 96q102 0 202 -27t180 -75l-72 -156q-160 78 -314 78q-204 0 -317 -153t-113 -429q0 -272 115 -412t341 -140q182 0 300 70l72 -154q-64 -48 -165 -74t-217 -26l-64 -92q28 4 42 4q100 0 157 -43t57 -121q0 -90 -65 -139t-183 -49 q-120 0 -216 48l36 102q102 -36 168 -36q104 0 104 72q0 70 -94 70q-42 0 -86 -16l-48 56l64 152q-250 38 -387 223t-137 489z" />
<glyph unicode="&#xc8;" horiz-adv-x="1152" d="M180 0v1448h866v-178h-668v-440h498v-180h-498v-472h694v-178h-892zM246 1828v24h234l280 -266v-24h-168z" />
<glyph unicode="&#xc9;" horiz-adv-x="1152" d="M180 0v1448h866v-178h-668v-440h498v-180h-498v-472h694v-178h-892zM478 1562v24l300 266h232v-24l-364 -266h-168z" />
<glyph unicode="&#xca;" horiz-adv-x="1152" d="M180 0v1448h866v-178h-668v-440h498v-180h-498v-472h694v-178h-892zM286 1562v24l234 266h200l234 -266v-24h-152l-186 174l-184 -174h-146z" />
<glyph unicode="&#xcb;" horiz-adv-x="1152" d="M180 0v1448h866v-178h-668v-440h498v-180h-498v-472h694v-178h-892zM304 1694q0 56 31 88t87 32q54 0 85 -32t31 -86q0 -58 -30 -89t-86 -31t-87 32t-31 86zM702 1694q0 56 31 88t87 32q54 0 85 -32t31 -86q0 -58 -30 -89t-86 -31t-87 32t-31 86z" />
<glyph unicode="&#xcc;" horiz-adv-x="566" d="M-90 1828v24h234l280 -266v-24h-168zM184 0v1448h198v-1448h-198z" />
<glyph unicode="&#xcd;" horiz-adv-x="566" d="M142 1562v24l300 266h232v-24l-364 -266h-168zM184 0v1448h198v-1448h-198z" />
<glyph unicode="&#xce;" horiz-adv-x="566" d="M-50 1562v24l234 266h200l234 -266v-24h-152l-186 174l-184 -174h-146zM184 0v1448h198v-1448h-198z" />
<glyph unicode="&#xcf;" horiz-adv-x="566" d="M-32 1694q0 56 31 88t87 32q54 0 85 -32t31 -86q0 -58 -30 -89t-86 -31t-87 32t-31 86zM184 0v1448h198v-1448h-198zM366 1694q0 56 31 88t87 32q54 0 85 -32t31 -86q0 -58 -30 -89t-86 -31t-87 32t-31 86z" />
<glyph unicode="&#xd0;" horiz-adv-x="1380" d="M48 652v162h132v634h422q324 0 494 -183t170 -541t-172 -541t-496 -183h-418v652h-132zM378 178h222q226 0 343 138t117 408q0 272 -117 409t-347 137h-218v-456h352v-162h-352v-474z" />
<glyph unicode="&#xd1;" horiz-adv-x="1448" d="M180 0v1448h188l704 -1110v1110h194v-1448h-188l-704 1112v-1112h-194zM380 1580q4 126 57 198t147 72q52 0 91 -20t89 -56q36 -26 58 -38t46 -12q68 0 82 122h118q-4 -126 -57 -198t-147 -72q-52 0 -91 20t-89 56q-36 26 -58 38t-46 12q-68 0 -82 -122h-118z" />
<glyph unicode="&#xd2;" horiz-adv-x="1428" d="M116 724q0 370 153 560t445 190q290 0 444 -190t154 -560t-154 -560t-444 -190q-292 0 -445 190t-153 560zM322 724q0 -284 99 -428t293 -144t293 144t99 428t-99 428t-293 144t-293 -144t-99 -428zM340 1828v24h234l280 -266v-24h-168z" />
<glyph unicode="&#xd3;" horiz-adv-x="1428" d="M116 724q0 370 153 560t445 190q290 0 444 -190t154 -560t-154 -560t-444 -190q-292 0 -445 190t-153 560zM322 724q0 -284 99 -428t293 -144t293 144t99 428t-99 428t-293 144t-293 -144t-99 -428zM572 1562v24l300 266h232v-24l-364 -266h-168z" />
<glyph unicode="&#xd4;" horiz-adv-x="1428" d="M116 724q0 370 153 560t445 190q290 0 444 -190t154 -560t-154 -560t-444 -190q-292 0 -445 190t-153 560zM322 724q0 -284 99 -428t293 -144t293 144t99 428t-99 428t-293 144t-293 -144t-99 -428zM380 1562v24l234 266h200l234 -266v-24h-152l-186 174l-184 -174h-146z " />
<glyph unicode="&#xd5;" horiz-adv-x="1428" d="M116 724q0 370 153 560t445 190q290 0 444 -190t154 -560t-154 -560t-444 -190q-292 0 -445 190t-153 560zM322 724q0 -284 99 -428t293 -144t293 144t99 428t-99 428t-293 144t-293 -144t-99 -428zM370 1580q4 126 57 198t147 72q52 0 91 -20t89 -56q36 -26 58 -38 t46 -12q68 0 82 122h118q-4 -126 -57 -198t-147 -72q-52 0 -91 20t-89 56q-36 26 -58 38t-46 12q-68 0 -82 -122h-118z" />
<glyph unicode="&#xd6;" horiz-adv-x="1428" d="M116 724q0 370 153 560t445 190q290 0 444 -190t154 -560t-154 -560t-444 -190q-292 0 -445 190t-153 560zM322 724q0 -284 99 -428t293 -144t293 144t99 428t-99 428t-293 144t-293 -144t-99 -428zM398 1694q0 56 31 88t87 32q54 0 85 -32t31 -86q0 -58 -30 -89t-86 -31 t-87 32t-31 86zM796 1694q0 56 31 88t87 32q54 0 85 -32t31 -86q0 -58 -30 -89t-86 -31t-87 32t-31 86z" />
<glyph unicode="&#xd7;" horiz-adv-x="1148" d="M140 408l312 328l-312 328l124 126l310 -326l310 326l124 -126l-312 -328l312 -328l-124 -126l-310 326l-310 -326z" />
<glyph unicode="&#xd8;" horiz-adv-x="1428" d="M56 2l176 220q-116 190 -116 502q0 370 153 560t445 190q242 0 390 -138l100 132h168v-22l-176 -220q116 -190 116 -502q0 -370 -154 -560t-444 -190q-246 0 -392 138l-100 -132h-166v22zM316 724q0 -212 46 -338l630 806q-96 110 -278 110q-198 0 -298 -146t-100 -432z M434 256q96 -110 280 -110q196 0 297 146t101 432q0 204 -46 338z" />
<glyph unicode="&#xd9;" horiz-adv-x="1372" d="M170 508v940h198v-932q0 -180 80 -272t236 -92q318 0 318 364v932h198v-940q0 -254 -136 -394t-380 -140t-379 140t-135 394zM312 1828v24h234l280 -266v-24h-168z" />
<glyph unicode="&#xda;" horiz-adv-x="1372" d="M170 508v940h198v-932q0 -180 80 -272t236 -92q318 0 318 364v932h198v-940q0 -254 -136 -394t-380 -140t-379 140t-135 394zM544 1562v24l300 266h232v-24l-364 -266h-168z" />
<glyph unicode="&#xdb;" horiz-adv-x="1372" d="M170 508v940h198v-932q0 -180 80 -272t236 -92q318 0 318 364v932h198v-940q0 -254 -136 -394t-380 -140t-379 140t-135 394zM352 1562v24l234 266h200l234 -266v-24h-152l-186 174l-184 -174h-146z" />
<glyph unicode="&#xdc;" horiz-adv-x="1372" d="M170 508v940h198v-932q0 -180 80 -272t236 -92q318 0 318 364v932h198v-940q0 -254 -136 -394t-380 -140t-379 140t-135 394zM370 1694q0 56 31 88t87 32q54 0 85 -32t31 -86q0 -58 -30 -89t-86 -31t-87 32t-31 86zM768 1694q0 56 31 88t87 32q54 0 85 -32t31 -86 q0 -58 -30 -89t-86 -31t-87 32t-31 86z" />
<glyph unicode="&#xdd;" horiz-adv-x="1176" d="M42 1448h216l332 -724l328 724h214l-448 -944v-504h-198v504zM444 1562v24l300 266h232v-24l-364 -266h-168z" />
<glyph unicode="&#xde;" horiz-adv-x="1230" d="M180 0v1448h198v-240h304q220 0 341 -122t121 -344q0 -224 -124 -347t-346 -123h-296v-272h-198zM378 450h304q126 0 191 73t65 217t-67 217t-197 73h-296v-580z" />
<glyph unicode="&#xdf;" horiz-adv-x="1198" d="M170 0v1112q0 212 110 330t308 118q180 0 280 -94t100 -264q0 -244 -216 -360q178 -38 272 -151t94 -291q0 -196 -112 -305t-314 -109q-102 0 -208 28l42 164q78 -24 166 -24q238 0 238 236q0 150 -99 233t-293 93v156q128 58 187 134t59 184q0 198 -190 198 q-114 0 -172 -70t-58 -206v-1112h-194z" />
<glyph unicode="&#xe0;" horiz-adv-x="1062" d="M76 300q0 192 154 283t484 93v62q0 92 -60 140t-176 48q-132 0 -252 -56l-50 156q158 78 332 78q184 0 291 -89t107 -257v-758h-176v142q-104 -164 -322 -164q-158 0 -245 84t-87 238zM238 1548v20h212l184 -318v-20h-148zM264 314q0 -82 48 -124t142 -42q150 0 260 120 v266q-234 -4 -342 -56t-108 -164z" />
<glyph unicode="&#xe1;" horiz-adv-x="1062" d="M76 300q0 192 154 283t484 93v62q0 92 -60 140t-176 48q-132 0 -252 -56l-50 156q158 78 332 78q184 0 291 -89t107 -257v-758h-176v142q-104 -164 -322 -164q-158 0 -245 84t-87 238zM264 314q0 -82 48 -124t142 -42q150 0 260 120v266q-234 -4 -342 -56t-108 -164z M390 1230v20l198 318h214v-20l-264 -318h-148z" />
<glyph unicode="&#xe2;" horiz-adv-x="1062" d="M76 300q0 192 154 283t484 93v62q0 92 -60 140t-176 48q-132 0 -252 -56l-50 156q158 78 332 78q184 0 291 -89t107 -257v-758h-176v142q-104 -164 -322 -164q-158 0 -245 84t-87 238zM210 1230v20l204 318h188l204 -318v-20h-140l-162 206l-160 -206h-134zM264 314 q0 -82 48 -124t142 -42q150 0 260 120v266q-234 -4 -342 -56t-108 -164z" />
<glyph unicode="&#xe3;" horiz-adv-x="1062" d="M76 300q0 192 154 283t484 93v62q0 92 -60 140t-176 48q-132 0 -252 -56l-50 156q158 78 332 78q184 0 291 -89t107 -257v-758h-176v142q-104 -164 -322 -164q-158 0 -245 84t-87 238zM164 1240q4 126 57 198t147 72q52 0 91 -20t89 -56q36 -26 58 -38t46 -12 q68 0 82 122h118q-4 -126 -57 -198t-147 -72q-52 0 -91 20t-89 56q-36 26 -58 38t-46 12q-68 0 -82 -122h-118zM264 314q0 -82 48 -124t142 -42q150 0 260 120v266q-234 -4 -342 -56t-108 -164z" />
<glyph unicode="&#xe4;" horiz-adv-x="1062" d="M76 300q0 192 154 283t484 93v62q0 92 -60 140t-176 48q-132 0 -252 -56l-50 156q158 78 332 78q184 0 291 -89t107 -257v-758h-176v142q-104 -164 -322 -164q-158 0 -245 84t-87 238zM202 1364q0 56 31 88t87 32q54 0 85 -32t31 -86q0 -58 -30 -89t-86 -31t-87 32 t-31 86zM264 314q0 -82 48 -124t142 -42q150 0 260 120v266q-234 -4 -342 -56t-108 -164zM580 1364q0 56 31 88t87 32q54 0 85 -32t31 -86q0 -58 -30 -89t-86 -31t-87 32t-31 86z" />
<glyph unicode="&#xe5;" horiz-adv-x="1062" d="M76 300q0 192 154 283t484 93v62q0 92 -60 140t-176 48q-132 0 -252 -56l-50 156q158 78 332 78q184 0 291 -89t107 -257v-758h-176v142q-104 -164 -322 -164q-158 0 -245 84t-87 238zM262 1428q0 104 65 163t181 59t181 -59t65 -163q0 -106 -65 -165t-181 -59t-181 59 t-65 165zM264 314q0 -82 48 -124t142 -42q150 0 260 120v266q-234 -4 -342 -56t-108 -164zM392 1428q0 -118 116 -118t116 118t-116 118t-116 -118z" />
<glyph unicode="&#xe6;" horiz-adv-x="1656" d="M76 298q0 186 150 274t470 90v76q0 188 -226 188q-126 0 -244 -56l-50 156q158 78 324 78q112 0 192 -40t124 -116q50 76 132 116t186 40q206 0 320 -137t114 -383q0 -64 -8 -102h-678q12 -162 88 -245t216 -83q134 0 262 76l72 -150q-68 -50 -160 -77t-190 -27 q-132 0 -231 51t-159 149q-82 -102 -175 -150t-207 -48q-152 0 -237 84t-85 236zM264 312q0 -164 182 -164q158 0 278 154q-28 92 -32 218q-220 -4 -324 -54t-104 -154zM884 628h490q-4 144 -67 224t-177 80q-108 0 -170 -77t-76 -227z" />
<glyph unicode="&#xe7;" horiz-adv-x="962" d="M92 534q0 170 60 299t170 200t254 71q82 0 165 -25t149 -67l-72 -154q-134 68 -246 68q-132 0 -206 -100t-74 -278q0 -194 77 -293t229 -99q122 0 234 64l70 -152q-60 -44 -141 -68t-175 -24h-8l-64 -92q28 4 42 4q100 0 157 -43t57 -121q0 -90 -65 -139t-183 -49 q-120 0 -216 48l36 102q102 -36 168 -36q104 0 104 72q0 70 -94 70q-42 0 -86 -16l-48 56l66 158q-172 40 -266 180t-94 364z" />
<glyph unicode="&#xe8;" horiz-adv-x="1082" d="M96 538q0 268 120 417t336 149q210 0 326 -137t116 -383q0 -62 -8 -102h-694q24 -328 312 -328q144 0 272 76l70 -150q-68 -50 -162 -77t-196 -27q-234 0 -363 148t-129 414zM282 1548v20h212l184 -318v-20h-148zM294 628h506q-2 144 -68 224t-184 80q-112 0 -176 -77 t-78 -227z" />
<glyph unicode="&#xe9;" horiz-adv-x="1082" d="M96 538q0 268 120 417t336 149q210 0 326 -137t116 -383q0 -62 -8 -102h-694q24 -328 312 -328q144 0 272 76l70 -150q-68 -50 -162 -77t-196 -27q-234 0 -363 148t-129 414zM294 628h506q-2 144 -68 224t-184 80q-112 0 -176 -77t-78 -227zM434 1230v20l198 318h214v-20 l-264 -318h-148z" />
<glyph unicode="&#xea;" horiz-adv-x="1082" d="M96 538q0 268 120 417t336 149q210 0 326 -137t116 -383q0 -62 -8 -102h-694q24 -328 312 -328q144 0 272 76l70 -150q-68 -50 -162 -77t-196 -27q-234 0 -363 148t-129 414zM254 1230v20l204 318h188l204 -318v-20h-140l-162 206l-160 -206h-134zM294 628h506 q-2 144 -68 224t-184 80q-112 0 -176 -77t-78 -227z" />
<glyph unicode="&#xeb;" horiz-adv-x="1082" d="M96 538q0 268 120 417t336 149q210 0 326 -137t116 -383q0 -62 -8 -102h-694q24 -328 312 -328q144 0 272 76l70 -150q-68 -50 -162 -77t-196 -27q-234 0 -363 148t-129 414zM246 1364q0 56 31 88t87 32q54 0 85 -32t31 -86q0 -58 -30 -89t-86 -31t-87 32t-31 86z M294 628h506q-2 144 -68 224t-184 80q-112 0 -176 -77t-78 -227zM624 1364q0 56 31 88t87 32q54 0 85 -32t31 -86q0 -58 -30 -89t-86 -31t-87 32t-31 86z" />
<glyph unicode="&#xec;" horiz-adv-x="544" d="M2 1548v20h212l184 -318v-20h-148zM174 0v1078h194v-1078h-194z" />
<glyph unicode="&#xed;" horiz-adv-x="544" d="M154 1230v20l198 318h214v-20l-264 -318h-148zM174 0v1078h194v-1078h-194z" />
<glyph unicode="&#xee;" horiz-adv-x="544" d="M-26 1230v20l204 318h188l204 -318v-20h-140l-162 206l-160 -206h-134zM174 0v1078h194v-1078h-194z" />
<glyph unicode="&#xef;" horiz-adv-x="544" d="M-18 1364q0 56 31 88t85 32t85 -32t31 -86q0 -58 -30 -89t-86 -31q-54 0 -85 32t-31 86zM174 0v1078h194v-1078h-194zM328 1364q0 56 31 88t85 32t85 -32t31 -86q0 -58 -30 -89t-86 -31q-54 0 -85 32t-31 86z" />
<glyph unicode="&#xf0;" horiz-adv-x="1116" d="M90 520q0 262 114 401t324 139q174 0 264 -130q-70 210 -242 344l-240 -148l-64 108l200 110q-84 48 -162 74l-56 20l48 132l56 -20q158 -60 254 -120l204 126l64 -108l-162 -92q166 -132 245 -323t79 -453q0 -300 -117 -453t-345 -153q-224 0 -344 139t-120 407z M290 520q0 -184 67 -278t197 -94t197 96t67 284q0 172 -70 269t-194 97q-130 0 -197 -95t-67 -279z" />
<glyph unicode="&#xf1;" horiz-adv-x="1166" d="M170 0v1078h178v-124q132 150 328 150q156 0 243 -91t87 -255v-758h-194v736q0 184 -200 184q-70 0 -129 -23t-119 -71v-826h-194zM246 1240q4 126 57 198t147 72q52 0 91 -20t89 -56q36 -26 58 -38t46 -12q68 0 82 122h118q-4 -126 -57 -198t-147 -72q-52 0 -91 20 t-89 56q-36 26 -58 38t-46 12q-68 0 -82 -122h-118z" />
<glyph unicode="&#xf2;" horiz-adv-x="1116" d="M100 538q0 278 119 422t341 144q220 0 338 -144t118 -422q0 -276 -119 -420t-339 -144q-222 0 -340 143t-118 421zM290 1548v20h212l184 -318v-20h-148zM300 538q0 -194 65 -292t193 -98t193 98t65 292t-65 293t-191 99q-128 0 -194 -99t-66 -293z" />
<glyph unicode="&#xf3;" horiz-adv-x="1116" d="M100 538q0 278 119 422t341 144q220 0 338 -144t118 -422q0 -276 -119 -420t-339 -144q-222 0 -340 143t-118 421zM300 538q0 -194 65 -292t193 -98t193 98t65 292t-65 293t-191 99q-128 0 -194 -99t-66 -293zM442 1230v20l198 318h214v-20l-264 -318h-148z" />
<glyph unicode="&#xf4;" horiz-adv-x="1116" d="M100 538q0 278 119 422t341 144q220 0 338 -144t118 -422q0 -276 -119 -420t-339 -144q-222 0 -340 143t-118 421zM262 1230v20l204 318h188l204 -318v-20h-140l-162 206l-160 -206h-134zM300 538q0 -194 65 -292t193 -98t193 98t65 292t-65 293t-191 99q-128 0 -194 -99 t-66 -293z" />
<glyph unicode="&#xf5;" horiz-adv-x="1116" d="M100 538q0 278 119 422t341 144q220 0 338 -144t118 -422q0 -276 -119 -420t-339 -144q-222 0 -340 143t-118 421zM216 1240q4 126 57 198t147 72q52 0 91 -20t89 -56q36 -26 58 -38t46 -12q68 0 82 122h118q-4 -126 -57 -198t-147 -72q-52 0 -91 20t-89 56 q-36 26 -58 38t-46 12q-68 0 -82 -122h-118zM300 538q0 -194 65 -292t193 -98t193 98t65 292t-65 293t-191 99q-128 0 -194 -99t-66 -293z" />
<glyph unicode="&#xf6;" horiz-adv-x="1116" d="M100 538q0 278 119 422t341 144q220 0 338 -144t118 -422q0 -276 -119 -420t-339 -144q-222 0 -340 143t-118 421zM254 1364q0 56 31 88t87 32q54 0 85 -32t31 -86q0 -58 -30 -89t-86 -31t-87 32t-31 86zM300 538q0 -194 65 -292t193 -98t193 98t65 292t-65 293t-191 99 q-128 0 -194 -99t-66 -293zM632 1364q0 56 31 88t87 32q54 0 85 -32t31 -86q0 -58 -30 -89t-86 -31t-87 32t-31 86z" />
<glyph unicode="&#xf7;" horiz-adv-x="1148" d="M130 650v174h888v-174h-888zM452 364q0 56 34 90t90 34q54 0 88 -34t34 -90t-34 -90t-88 -34q-56 0 -90 34t-34 90zM452 1108q0 56 34 90t90 34q54 0 88 -34t34 -90t-34 -90t-88 -34q-56 0 -90 34t-34 90z" />
<glyph unicode="&#xf8;" horiz-adv-x="1116" d="M40 0l144 174q-84 138 -84 364q0 278 119 422t341 144q174 0 288 -98l68 92h160v-20l-142 -174q82 -140 82 -366q0 -276 -119 -420t-339 -144q-176 0 -290 96l-68 -90h-160v20zM292 538q0 -114 22 -202l426 532q-66 68 -180 68q-132 0 -200 -100t-68 -298zM378 210 q62 -70 180 -70q132 0 199 101t67 297q0 116 -22 204z" />
<glyph unicode="&#xf9;" horiz-adv-x="1150" d="M156 320v758h194v-736q0 -184 194 -184q72 0 130 26t112 84v810h194v-1078h-178v138q-118 -164 -322 -164q-154 0 -239 91t-85 255zM300 1548v20h212l184 -318v-20h-148z" />
<glyph unicode="&#xfa;" horiz-adv-x="1150" d="M156 320v758h194v-736q0 -184 194 -184q72 0 130 26t112 84v810h194v-1078h-178v138q-118 -164 -322 -164q-154 0 -239 91t-85 255zM452 1230v20l198 318h214v-20l-264 -318h-148z" />
<glyph unicode="&#xfb;" horiz-adv-x="1150" d="M156 320v758h194v-736q0 -184 194 -184q72 0 130 26t112 84v810h194v-1078h-178v138q-118 -164 -322 -164q-154 0 -239 91t-85 255zM272 1230v20l204 318h188l204 -318v-20h-140l-162 206l-160 -206h-134z" />
<glyph unicode="&#xfc;" horiz-adv-x="1150" d="M156 320v758h194v-736q0 -184 194 -184q72 0 130 26t112 84v810h194v-1078h-178v138q-118 -164 -322 -164q-154 0 -239 91t-85 255zM264 1364q0 56 31 88t87 32q54 0 85 -32t31 -86q0 -58 -30 -89t-86 -31t-87 32t-31 86zM642 1364q0 56 31 88t87 32q54 0 85 -32t31 -86 q0 -58 -30 -89t-86 -31t-87 32t-31 86z" />
<glyph unicode="&#xfd;" horiz-adv-x="1036" d="M50 1078h204l266 -862l266 862h200l-360 -1064q-54 -162 -178 -273t-324 -179l-68 166q142 50 228 113t136 153zM404 1230v20l198 318h214v-20l-264 -318h-148z" />
<glyph unicode="&#xfe;" horiz-adv-x="1154" d="M170 126v876v538h194v-582q110 146 290 146q190 0 295 -150t105 -420q0 -264 -109 -412t-305 -148q-84 0 -155 31t-121 89v-508h-194v540zM364 260q46 -52 110 -81t134 -29q246 0 246 380q0 390 -256 390q-128 0 -234 -114v-546z" />
<glyph unicode="&#xff;" horiz-adv-x="1036" d="M50 1078h204l266 -862l266 862h200l-360 -1064q-54 -162 -178 -273t-324 -179l-68 166q142 50 228 113t136 153zM216 1364q0 56 31 88t87 32q54 0 85 -32t31 -86q0 -58 -30 -89t-86 -31t-87 32t-31 86zM594 1364q0 56 31 88t87 32q54 0 85 -32t31 -86q0 -58 -30 -89 t-86 -31t-87 32t-31 86z" />
<glyph unicode="&#x152;" horiz-adv-x="1924" d="M116 724q0 358 154 541t444 183h348h756v-178h-640v-440h470v-180h-470v-472h666v-178h-858h-272q-290 0 -444 183t-154 541zM322 724q0 -270 99 -408t293 -138h272v1092h-272q-194 0 -293 -137t-99 -409z" />
<glyph unicode="&#x153;" horiz-adv-x="1762" d="M100 538q0 278 117 422t333 144q116 0 205 -49t145 -143q48 92 136 142t204 50q206 0 320 -137t114 -383q0 -64 -8 -102h-678q12 -162 88 -245t216 -83q134 0 262 76l72 -150q-68 -50 -160 -77t-190 -27q-254 0 -378 188q-56 -94 -145 -142t-205 -48q-214 0 -331 144 t-117 420zM300 538q0 -194 62 -292t186 -98q252 0 252 390q0 194 -63 293t-187 99t-187 -99t-63 -293zM990 628h490q-4 144 -67 224t-177 80q-108 0 -170 -77t-76 -227z" />
<glyph unicode="&#x178;" horiz-adv-x="1176" d="M42 1448h216l332 -724l328 724h214l-448 -944v-504h-198v504zM270 1694q0 56 31 88t87 32q54 0 85 -32t31 -86q0 -58 -30 -89t-86 -31t-87 32t-31 86zM668 1694q0 56 31 88t87 32q54 0 85 -32t31 -86q0 -58 -30 -89t-86 -31t-87 32t-31 86z" />
<glyph unicode="&#x2c6;" horiz-adv-x="1000" d="M202 1230v20l204 318h188l204 -318v-20h-140l-160 206l-162 -206h-134z" />
<glyph unicode="&#x2dc;" horiz-adv-x="1000" d="M156 1240q4 126 57 198t147 72q52 0 91 -20t89 -56q36 -26 58 -38t46 -12q68 0 82 122h118q-4 -126 -57 -198t-147 -72q-52 0 -91 20t-89 56q-36 26 -58 38t-46 12q-68 0 -82 -122h-118z" />
<glyph unicode="&#x2000;" horiz-adv-x="990" />
<glyph unicode="&#x2001;" horiz-adv-x="1980" />
<glyph unicode="&#x2002;" horiz-adv-x="990" />
<glyph unicode="&#x2003;" horiz-adv-x="1980" />
<glyph unicode="&#x2004;" horiz-adv-x="660" />
<glyph unicode="&#x2005;" horiz-adv-x="495" />
<glyph unicode="&#x2006;" horiz-adv-x="330" />
<glyph unicode="&#x2007;" horiz-adv-x="330" />
<glyph unicode="&#x2008;" horiz-adv-x="247" />
<glyph unicode="&#x2009;" horiz-adv-x="396" />
<glyph unicode="&#x200a;" horiz-adv-x="110" />
<glyph unicode="&#x2010;" horiz-adv-x="816" d="M100 516v160h616v-160h-616z" />
<glyph unicode="&#x2011;" horiz-adv-x="816" d="M100 516v160h616v-160h-616z" />
<glyph unicode="&#x2012;" horiz-adv-x="816" d="M100 516v160h616v-160h-616z" />
<glyph unicode="&#x2013;" horiz-adv-x="1218" d="M100 526v150h1018v-150h-1018z" />
<glyph unicode="&#x2014;" horiz-adv-x="1832" d="M100 526v150h1632v-150h-1632z" />
<glyph unicode="&#x2018;" horiz-adv-x="416" d="M74 1146q0 112 56 208t178 188l80 -84q-68 -72 -96 -143t-28 -167q0 -72 8 -130h-188q-10 74 -10 128z" />
<glyph unicode="&#x2019;" horiz-adv-x="402" d="M30 1060q68 72 96 142t28 166q0 56 -10 132h188q10 -58 10 -130q0 -112 -56 -207t-178 -187z" />
<glyph unicode="&#x201a;" horiz-adv-x="444" d="M20 -244q68 72 96 142t28 166q0 56 -10 132h188q10 -58 10 -130q0 -112 -56 -207t-178 -187z" />
<glyph unicode="&#x201c;" horiz-adv-x="750" d="M74 1148q0 112 56 207t178 187l78 -84q-68 -72 -96 -142t-28 -166q0 -56 10 -132h-188q-10 58 -10 130zM408 1148q0 112 56 207t178 187l78 -84q-68 -72 -96 -142t-28 -166q0 -56 10 -132h-188q-10 58 -10 130z" />
<glyph unicode="&#x201d;" horiz-adv-x="734" d="M30 1060q68 72 96 142t28 166q0 56 -10 132h188q10 -58 10 -130q0 -112 -56 -207t-178 -187zM362 1060q68 72 96 142t28 166q0 56 -10 132h188q10 -58 10 -130q0 -112 -56 -207t-178 -187z" />
<glyph unicode="&#x201e;" horiz-adv-x="778" d="M20 -244q68 72 96 142t28 166q0 56 -10 132h188q10 -58 10 -130q0 -112 -56 -207t-178 -187zM352 -244q68 72 96 142t28 166q0 56 -10 132h188q10 -58 10 -130q0 -112 -56 -207t-178 -187z" />
<glyph unicode="&#x2022;" horiz-adv-x="934" d="M136 694q0 158 87 245t243 87q158 0 245 -87t87 -245q0 -156 -87 -244t-245 -88q-156 0 -243 88t-87 244z" />
<glyph unicode="&#x2026;" horiz-adv-x="1466" d="M122 104q0 64 35 98t97 34t97 -35t35 -95q0 -62 -35 -97t-97 -35t-97 35t-35 95zM602 104q0 64 35 98t97 34t97 -35t35 -95q0 -62 -35 -97t-97 -35t-97 35t-35 95zM1082 104q0 64 35 98t97 34t97 -35t35 -95q0 -62 -35 -97t-97 -35t-97 35t-35 95z" />
<glyph unicode="&#x202f;" horiz-adv-x="396" />
<glyph unicode="&#x2039;" horiz-adv-x="704" d="M66 574l442 510l122 -118l-342 -388l342 -394l-124 -118z" />
<glyph unicode="&#x203a;" horiz-adv-x="704" d="M74 184l342 388l-342 394l124 118l440 -510l-442 -508z" />
<glyph unicode="&#x205f;" horiz-adv-x="495" />
<glyph unicode="&#x20ac;" horiz-adv-x="1234" d="M116 498v142h146q-2 26 -2 82q0 58 2 86h-146v142h162q42 252 180 388t352 136q82 0 164 -24t148 -68l-66 -152q-126 66 -244 66q-134 0 -218 -87t-114 -259h408v-142h-424q-2 -28 -2 -86q0 -56 2 -82h424v-142h-408q64 -342 334 -342q120 0 238 62l70 -152 q-138 -90 -314 -90q-216 0 -353 135t-177 387h-162z" />
<glyph unicode="&#x2122;" horiz-adv-x="1850" d="M72 1302v146h602v-146h-222v-750h-158v750h-222zM810 552v896h182l248 -548l248 548h180v-896h-152v646l-214 -470h-126l-216 472v-648h-150z" />
<glyph unicode="&#x25fc;" horiz-adv-x="1080" d="M0 0v1080h1080v-1080h-1080z" />
<glyph unicode="&#xfb03;" horiz-adv-x="2006" d="M30 912v166h178v114q0 174 103 271t289 97q66 0 110 -10v-170q-72 8 -110 8q-98 0 -148 -50t-50 -146v-114h270v-166h-270v-912h-194v912h-178zM760 912v166h178v114q0 174 103 271t289 97q66 0 110 -10v-170q-72 8 -110 8q-98 0 -148 -50t-50 -146v-114h270v-166h-270 v-912h-194v912h-178zM1608 1374q0 60 33 93t93 33t93 -33t33 -91q0 -60 -33 -93t-93 -33t-93 33t-33 91zM1636 0v1078h194v-1078h-194z" />
<glyph unicode="&#xfb04;" horiz-adv-x="2086" d="M30 912v166h178v114q0 174 103 271t289 97q66 0 110 -10v-170q-72 8 -110 8q-98 0 -148 -50t-50 -146v-114h270v-166h-270v-912h-194v912h-178zM760 912v166h178v114q0 174 103 271t289 97q66 0 110 -10v-170q-72 8 -110 8q-98 0 -148 -50t-50 -146v-114h270v-166h-270 v-912h-194v912h-178zM1628 242v1298h194v-1272q0 -56 25 -82t81 -26q34 0 76 8l16 -164q-70 -16 -140 -16q-252 0 -252 254z" />
</font>
</defs>
</svg>
